HIERARCHY
ROOT Hips
{
	OFFSET 0.000000 0.000000 0.000000
	CHANNELS 6 Xposition Yposition Zposition Zrotation Yrotation Xrotation 
	JOINT LHipJoint
	{
		OFFSET 0.000000 0.000000 0.000000
		CHANNELS 3 Zrotation Yrotation Xrotation
		JOINT LeftUpLeg
		{
			OFFSET 1.363060 -1.794630 0.839290
			CHANNELS 3 Zrotation Yrotation Xrotation
			JOINT LeftLeg
			{
				OFFSET 2.448110 -6.726130 0.000000
				CHANNELS 3 Zrotation Yrotation Xrotation
				JOINT LeftFoot
				{
					OFFSET 2.562200 -7.039590 0.000000
					CHANNELS 3 Zrotation Yrotation Xrotation
					JOINT LeftToeBase
					{
						OFFSET 0.157640 -0.433110 2.322550
						CHANNELS 3 Zrotation Yrotation Xrotation
						End Site
						{
							OFFSET 0.000000 0.000000 0.000000
						}
					}
				}
			}
		}
	}
	JOINT RHipJoint
	{
		OFFSET 0.000000 0.000000 0.000000
		CHANNELS 3 Zrotation Yrotation Xrotation
		JOINT RightUpLeg
		{
			OFFSET -1.305520 -1.794630 0.839290
			CHANNELS 3 Zrotation Yrotation Xrotation
			JOINT RightLeg
			{
				OFFSET -2.542530 -6.985550 0.000000
				CHANNELS 3 Zrotation Yrotation Xrotation
				JOINT RightFoot
				{
					OFFSET -2.568260 -7.056230 0.000000
					CHANNELS 3 Zrotation Yrotation Xrotation
					JOINT RightToeBase
					{
						OFFSET -0.164730 -0.452590 2.363150
						CHANNELS 3 Zrotation Yrotation Xrotation
						End Site
						{
							OFFSET 0.000000 0.000000 0.000000
						}
					}
				}
			}
		}
	}
	JOINT LowerBack
	{
		OFFSET 0.000000 0.000000 0.000000
		CHANNELS 3 Zrotation Yrotation Xrotation
		JOINT Spine
		{
			OFFSET 0.028270 2.035590 -0.193380
			CHANNELS 3 Zrotation Yrotation Xrotation
			JOINT Spine1
			{
				OFFSET 0.056720 2.048850 -0.042750
				CHANNELS 3 Zrotation Yrotation Xrotation
				JOINT Neck
				{
					OFFSET 0.000000 0.000000 0.000000
					CHANNELS 3 Zrotation Yrotation Xrotation
					JOINT Neck1
					{
						OFFSET -0.054170 1.746240 0.172020
						CHANNELS 3 Zrotation Yrotation Xrotation
						JOINT Head
						{
							OFFSET 0.104070 1.761360 -0.123970
							CHANNELS 3 Zrotation Yrotation Xrotation
							End Site
							{
								OFFSET 0.000000 0.000000 0.000000
							}
						}
					}
				}
				JOINT LeftShoulder
				{
					OFFSET 0.000000 0.000000 0.000000
					CHANNELS 3 Zrotation Yrotation Xrotation
					JOINT LeftArm
					{
						OFFSET 3.362410 1.200890 -0.311210
						CHANNELS 3 Zrotation Yrotation Xrotation
						JOINT LeftForeArm
						{
							OFFSET 4.983000 -0.000000 -0.000000
							CHANNELS 3 Zrotation Yrotation Xrotation
							JOINT LeftHand
							{
								OFFSET 3.483560 -0.000000 -0.000000
								CHANNELS 3 Zrotation Yrotation Xrotation
								JOINT LeftFingerBase
								{
									OFFSET 0.000000 0.000000 0.000000
									CHANNELS 3 Zrotation Yrotation Xrotation
									JOINT LeftHandIndex1
									{
										OFFSET 0.715260 -0.000000 -0.000000
										CHANNELS 3 Zrotation Yrotation Xrotation
										End Site
										{
											OFFSET 0.000000 0.000000 0.000000
										}
									}
								}
								JOINT LThumb
								{
									OFFSET 0.000000 0.000000 0.000000
									CHANNELS 3 Zrotation Yrotation Xrotation
									End Site
									{
										OFFSET 0.000000 0.000000 0.000000
									}
								}
							}
						}
					}
				}
				JOINT RightShoulder
				{
					OFFSET 0.000000 0.000000 0.000000
					CHANNELS 3 Zrotation Yrotation Xrotation
					JOINT RightArm
					{
						OFFSET -3.136600 1.374050 -0.404650
						CHANNELS 3 Zrotation Yrotation Xrotation
						JOINT RightForeArm
						{
							OFFSET -5.241900 -0.000000 -0.000000
							CHANNELS 3 Zrotation Yrotation Xrotation
							JOINT RightHand
							{
								OFFSET -3.444170 -0.000000 -0.000000
								CHANNELS 3 Zrotation Yrotation Xrotation
								JOINT RightFingerBase
								{
									OFFSET 0.000000 0.000000 0.000000
									CHANNELS 3 Zrotation Yrotation Xrotation
									JOINT RightHandIndex1
									{
										OFFSET -0.622530 -0.000000 -0.000000
										CHANNELS 3 Zrotation Yrotation Xrotation
										End Site
										{
											OFFSET 0.000000 0.000000 0.000000
										}
									}
								}
								JOINT RThumb
								{
									OFFSET 0.000000 0.000000 0.000000
									CHANNELS 3 Zrotation Yrotation Xrotation
									End Site
									{
										OFFSET 0.000000 0.000000 0.000000
									}
								}
							}
						}
					}
				}
			}
		}
	}
}
MOTION
Frames: 7
Frame Time: 0.008333
1.462154 17.783870 5.085734 0.909272 -29.689231 -1.772345 0.716116 5.175040 4.593847 -24.265213 -3.920227 -12.426388 1.701120 8.562454 30.191094 -3.632663 14.930884 -10.159839 0.012500 0.722400 1.985200 -1.843891 -5.276121 4.120381 21.657697 -5.158975 -22.583500 -6.268591 -13.317111 46.433830 3.134617 -14.641543 -13.626356 -0.358000 -3.843900 10.637900 -3.677469 -1.669124 11.378368 1.763121 -3.446226 12.484166 5.133874 -1.089822 -13.725278 -5.715485 -7.373529 -12.992989 4.742331 -9.610320 20.442971 0.519100 -4.417400 8.371200 -1.976126 1.227882 -0.807388 -87.080385 21.629360 10.193852 31.198029 -40.063937 -11.169249 0.308805 -0.437893 -12.438034 18.377489 50.380726 14.308400 -7.125000 0.000000 0.000000 -55.606900 77.433000 -44.440600 1.978604 -0.777543 -0.111125 78.460688 -13.752831 -27.965637 -150.544818 41.028706 -107.938848 0.226615 1.258092 -25.446769 16.424404 2.551368 0.414000 7.125000 0.000000 0.000000 31.166200 -27.477900 15.527800 
1.446848 17.789137 5.091002 1.094026 -30.532654 -1.812914 0.712995 5.176987 4.591383 -24.392093 -3.936054 -12.401483 1.707812 8.588504 30.281525 -3.689637 15.225573 -10.690262 0.019000 0.890600 2.448000 -1.841000 -5.287254 4.104180 21.546499 -5.607257 -22.558352 -6.244432 -13.282050 46.276001 3.140876 -14.495484 -12.909773 -0.273800 -3.365800 9.298900 -3.707546 -1.819963 11.249720 1.702778 -3.636934 12.261601 5.179518 -1.175920 -13.762775 -6.012974 -7.349839 -12.759419 4.881344 -9.573723 20.515439 0.609500 -4.408900 8.365200 -2.003817 1.249992 -0.804036 -87.006131 21.828555 10.291990 31.080936 -39.953189 -11.089502 0.308795 -0.436024 -12.641183 18.284561 50.452145 14.247700 -7.125000 0.000000 0.000000 -55.949700 77.425600 -44.734300 2.089382 -0.805578 -0.107941 77.597043 -14.157559 -25.973409 -152.926838 39.094018 -109.500099 0.192917 1.196214 -21.855762 14.850962 2.414082 0.340800 7.125000 0.000000 0.000000 30.261300 -27.701400 14.730000 
1.432139 17.790231 5.077485 1.101061 -31.300983 -1.662275 0.725731 5.155727 4.560489 -24.321586 -3.726898 -12.689800 1.736889 8.648147 30.437325 -3.759127 15.494201 -10.893470 0.006400 0.516800 1.420100 -1.824744 -5.283840 4.107966 21.555937 -5.501186 -22.314508 -6.190103 -13.228918 46.118019 2.708301 -13.066986 -12.919889 -0.470000 -4.397000 12.196200 -3.841855 -2.450332 11.226145 2.030580 -4.500642 11.814778 5.571177 -1.551815 -13.880268 -7.166291 -6.857791 -12.197714 5.303298 -8.811436 20.515492 0.990600 -4.101300 8.290100 -2.056903 1.250284 -0.804496 -87.989047 22.357504 8.627150 30.968858 -39.858715 -11.010348 0.305279 -0.456453 -12.414540 18.194980 50.420273 14.177100 -7.125000 0.000000 0.000000 -55.935700 77.385100 -44.682700 2.181851 -0.822263 -0.081711 75.934273 -13.875946 -22.995639 -154.794927 37.474084 -110.693329 0.234610 1.166758 -18.285841 14.939407 2.920129 0.474700 7.125000 0.000000 0.000000 30.201600 -27.237200 15.088300 
1.416238 17.787845 5.066752 0.859425 -32.369084 -1.553988 0.708415 5.190848 4.578746 -24.016427 -3.377040 -12.885103 1.775354 8.732282 30.640127 -3.891443 15.979708 -11.188947 0.001200 0.220200 0.605000 -1.832241 -5.264051 4.091197 22.008099 -5.448960 -22.132764 -6.126338 -13.121621 45.782892 3.037762 -14.008834 -12.317107 -0.175100 -2.695400 7.432000 -3.180867 -2.291253 11.186857 1.527593 -4.120402 11.937121 4.953753 -1.441773 -13.897964 -6.337613 -7.193935 -12.377855 5.251245 -9.406817 20.490153 0.781800 -4.322200 8.300800 -2.052686 1.277426 -0.800310 -86.824759 21.933335 9.452518 30.775051 -39.694340 -10.871929 0.300977 -0.434536 -12.164400 18.047106 50.417148 14.050100 -7.125000 0.000000 0.000000 -55.914600 77.312400 -44.593700 2.311250 -0.847852 -0.107041 76.277640 -14.302371 -21.373937 -156.924658 35.523811 -111.946368 0.178876 1.131224 -15.099576 13.239267 2.881365 0.410500 7.125000 0.000000 0.000000 29.176700 -27.381700 14.297300 
1.399044 17.784367 5.067050 0.584225 -33.672119 -1.506350 0.702589 5.203272 4.586172 -23.726135 -3.025643 -12.915338 1.801210 8.798054 30.848229 -3.908008 16.203860 -12.025657 0.021400 0.945300 2.598200 -1.824248 -5.259492 4.086506 22.382283 -5.247547 -21.774523 -6.042815 -13.012105 45.438601 3.107244 -14.186870 -12.140515 -0.065800 -1.655600 4.554700 -2.995051 -2.112639 11.260866 1.644004 -3.858687 11.899870 4.859884 -1.327632 -14.003191 -6.271752 -7.352716 -12.414577 5.211152 -9.640999 20.542781 0.731000 -4.428400 8.325700 -2.087482 1.300206 -0.800278 -86.660759 21.931159 9.680079 30.818907 -39.734852 -10.903131 0.300808 -0.430687 -11.918397 17.960152 50.285024 13.951700 -7.125000 0.000000 0.000000 -55.411000 77.217000 -44.060300 2.390559 -0.877234 -0.114244 75.906897 -14.603269 -18.911170 -158.663813 33.842497 -112.928511 0.161337 1.099269 -11.056180 12.283621 3.221974 0.454200 7.125000 0.000000 0.000000 28.517800 -27.127500 14.079700 
1.377875 17.787647 5.057409 0.497573 -34.842854 -1.423592 0.696521 5.187526 4.577102 -23.561192 -3.008720 -13.000111 1.811048 8.853064 31.020981 -3.912105 16.436555 -12.997002 0.064600 1.639500 4.510400 -1.813641 -5.251627 4.088715 22.608239 -4.900179 -21.531266 -5.931118 -12.896618 45.019327 3.049778 -13.950269 -11.994479 -0.042400 -1.329500 3.656000 -3.140874 -1.968362 11.389016 1.790768 -3.713781 11.857174 5.000059 -1.241328 -14.108934 -6.128965 -7.428730 -12.884855 5.210586 -9.753414 20.724784 0.681900 -4.459100 8.456000 -2.125202 1.325787 -0.800009 -86.548346 21.733355 9.928046 30.741776 -39.668237 -10.854219 0.300174 -0.430311 -11.840181 18.150259 50.175059 14.083700 -7.125000 0.000000 0.000000 -54.844600 77.245200 -43.592900 2.453430 -0.891855 -0.110679 75.461010 -14.721494 -16.126479 -160.092453 32.409492 -113.697120 0.139445 1.067891 -6.921652 11.317299 3.563558 0.488600 7.125000 0.000000 0.000000 27.851800 -26.862200 13.861700 
1.349948 17.782578 5.071125 1.164483 -35.782876 -1.745263 0.684793 5.180060 4.565979 -24.142254 -2.779418 -12.891710 1.830309 8.854045 31.075862 -4.088772 17.040495 -13.076080 0.016500 0.829700 2.280400 -1.814990 -5.256332 4.093306 21.973552 -4.846368 -21.342281 -5.811052 -12.810696 44.619941 2.675973 -12.717404 -12.103697 -0.098500 -2.023900 5.571700 -3.579903 -2.047098 11.114163 1.476518 -3.875641 11.758920 5.150365 -1.302381 -13.978401 -5.970696 -7.343385 -12.873409 5.198864 -9.671525 20.827096 0.662000 -4.409700 8.473800 -2.133112 1.351491 -0.798894 -86.440726 21.707594 9.697531 30.595536 -39.535512 -10.750171 0.295621 -0.430029 -11.667632 18.229143 50.176627 14.149400 -7.125000 0.000000 0.000000 -54.788300 77.277900 -43.575100 2.533962 -0.909875 -0.108995 74.868239 -15.261236 -12.690186 -161.322144 31.139658 -114.328550 0.093250 1.038421 -2.564019 9.959590 3.909991 0.495300 7.125000 0.000000 0.000000 26.935700 -26.600200 13.478700 
